<svg width="130" height="43" viewBox="0 0 130 43" fill="none" xmlns="http://www.w3.org/2000/svg">
<path d="M31.7458 21.7714H27.1736C31.4417 17.2669 31.6536 10.9676 31.5276 8.33328C31.5059 7.87823 31.218 7.49059 30.7765 7.32141C30.3278 7.14934 29.8181 7.25019 29.4778 7.57804L25.2535 11.647C25.0237 11.8683 25.0209 12.23 25.2472 12.4549C25.4735 12.6796 25.8432 12.6823 26.0731 12.461L30.2973 8.39208C30.3044 8.38523 30.3109 8.37898 30.327 8.38058C30.3416 8.38089 30.3544 8.38614 30.361 8.39041C30.487 11.0338 30.2585 17.5752 25.5131 21.7714H22.5415C22.5927 21.6666 22.642 21.5609 22.6909 21.4551C23.8375 20.323 25.9918 18.0061 27.4187 15.3105C27.567 15.0303 27.4551 14.6856 27.1686 14.5405C26.8823 14.3954 26.5298 14.5048 26.3815 14.7852C25.6174 16.2286 24.6132 17.5762 23.6875 18.67C24.0242 17.3673 24.1984 16.031 24.1984 14.6947C24.1984 9.50724 21.6507 3.15969 20.5554 0.671379C20.3757 0.263479 19.9615 0 19.5 0C19.0384 0 18.6242 0.263478 18.4446 0.671303C17.3493 3.15961 14.8016 9.50732 14.8016 14.6946C14.8016 16.0308 14.9758 17.3673 15.3124 18.67C14.3868 17.5761 13.3826 16.2286 12.6184 14.7852C12.4701 14.505 12.1175 14.3956 11.8313 14.5405C11.5448 14.6856 11.4329 15.0304 11.5812 15.3105C13.0081 18.0061 15.1625 20.323 16.309 21.4551C16.3579 21.5609 16.4072 21.6666 16.4584 21.7714H13.4868C8.74252 17.5763 8.51295 11.0372 8.63887 8.39033C8.64565 8.38607 8.65834 8.38089 8.67282 8.38058C8.68754 8.37883 8.69541 8.3853 8.70249 8.39208L12.9329 12.4669C13.1626 12.6882 13.5324 12.6855 13.7588 12.4607C13.9851 12.2359 13.9823 11.8742 13.7525 11.6529L9.52201 7.57804C9.18179 7.25027 8.67189 7.14942 8.22335 7.32141C7.78174 7.49059 7.49392 7.8783 7.4722 8.3332C7.3462 10.9676 7.55817 17.267 11.8262 21.7714H7.25415C6.01117 21.7714 5 22.7605 5 23.9763C5 25.1922 6.01117 26.1813 7.25415 26.1813H7.70083L10.3154 37.1483C10.5752 38.2386 11.556 39 12.7005 39H26.2995C27.4439 39 28.4248 38.2386 28.6846 37.1483L31.2992 26.1813H31.7458C32.9888 26.1813 34 25.1922 34 23.9763C33.9999 22.7606 32.9888 21.7714 31.7458 21.7714ZM19.5 1.16314C20.576 3.61367 23.0302 9.7468 23.0302 14.6947C23.0302 17.7188 22.0907 20.1694 21.237 21.7715H20.084V10.6631C20.084 10.3476 19.8226 10.0919 19.5 10.0919C19.1773 10.0919 18.9159 10.3476 18.9159 10.6631V21.7714H17.7629C16.9092 20.1692 15.9696 17.7186 15.9696 14.6946C15.9696 9.74703 18.4239 3.61359 19.5 1.16314ZM31.7458 25.0388H13.465C13.1424 25.0388 12.8809 25.2945 12.8809 25.6101C12.8809 25.9256 13.1424 26.1813 13.465 26.1813H30.0998L27.5471 36.8889C27.4111 37.4591 26.8981 37.8574 26.2995 37.8574H12.7005C12.1018 37.8574 11.5889 37.4591 11.4529 36.8889L8.90021 26.1813H10.7349C11.0575 26.1813 11.3189 25.9256 11.3189 25.6101C11.3189 25.2945 11.0575 25.0388 10.7349 25.0388H7.25415C6.65532 25.0388 6.16808 24.5622 6.16808 23.9764C6.16808 23.3906 6.65532 22.9141 7.25415 22.9141H31.7458C32.3446 22.9141 32.8318 23.3906 32.8318 23.9764C32.8318 24.5622 32.3446 25.0388 31.7458 25.0388Z" fill="white"/>
<path d="M45.588 39C45.452 38.64 45.324 38.288 45.204 37.944C45.084 37.592 44.96 37.236 44.832 36.876H41.064L40.308 39H39.096C39.416 38.12 39.716 37.308 39.996 36.564C40.276 35.812 40.548 35.1 40.812 34.428C41.084 33.756 41.352 33.116 41.616 32.508C41.88 31.892 42.156 31.284 42.444 30.684H43.512C43.8 31.284 44.076 31.892 44.34 32.508C44.604 33.116 44.868 33.756 45.132 34.428C45.404 35.1 45.68 35.812 45.96 36.564C46.24 37.308 46.54 38.12 46.86 39H45.588ZM44.496 35.916C44.24 35.22 43.984 34.548 43.728 33.9C43.48 33.244 43.22 32.616 42.948 32.016C42.668 32.616 42.4 33.244 42.144 33.9C41.896 34.548 41.648 35.22 41.4 35.916H44.496ZM59.9716 30.684V31.692H57.3556V39H56.1916V31.692H53.5756V30.684H59.9716ZM68.4007 39V30.684H73.4767V31.68H69.5647V34.152H73.0447V35.124H69.5647V38.004H73.7768V39H68.4007ZM87.4602 37.992V39H82.4562V30.684H83.6202V37.992H87.4602ZM95.8789 30.684H97.0429V39H95.8789V30.684ZM106.302 39V30.684H111.378V31.68H107.466V34.152H110.946V35.124H107.466V38.004H111.678V39H106.302ZM124.425 35.52C124.553 35.68 124.713 35.892 124.905 36.156C125.105 36.412 125.309 36.7 125.517 37.02C125.725 37.332 125.929 37.66 126.129 38.004C126.337 38.348 126.513 38.68 126.657 39H125.385C125.225 38.696 125.049 38.388 124.857 38.076C124.673 37.764 124.485 37.468 124.293 37.188C124.101 36.9 123.909 36.632 123.717 36.384C123.533 36.136 123.365 35.92 123.213 35.736C123.109 35.744 123.001 35.748 122.889 35.748C122.785 35.748 122.677 35.748 122.565 35.748H121.521V39H120.357V30.804C120.685 30.724 121.049 30.672 121.449 30.648C121.857 30.616 122.229 30.6 122.565 30.6C123.733 30.6 124.621 30.82 125.229 31.26C125.845 31.7 126.153 32.356 126.153 33.228C126.153 33.78 126.005 34.252 125.709 34.644C125.421 35.036 124.993 35.328 124.425 35.52ZM122.661 31.62C122.165 31.62 121.785 31.632 121.521 31.656V34.788H122.349C122.749 34.788 123.109 34.768 123.429 34.728C123.749 34.688 124.017 34.612 124.233 34.5C124.457 34.388 124.629 34.232 124.749 34.032C124.869 33.824 124.929 33.552 124.929 33.216C124.929 32.904 124.869 32.644 124.749 32.436C124.629 32.228 124.465 32.064 124.257 31.944C124.057 31.824 123.817 31.74 123.537 31.692C123.265 31.644 122.973 31.62 122.661 31.62Z" fill="white"/>
<path d="M48.78 22C48.5 21.5467 48.1667 21.06 47.78 20.54C47.4067 20.0067 46.9933 19.48 46.54 18.96C46.1 18.4267 45.64 17.92 45.16 17.44C44.68 16.9467 44.2 16.5133 43.72 16.14V22H40.6V8.14H43.72V13.38C44.5333 12.5267 45.3467 11.64 46.16 10.72C46.9867 9.78667 47.7533 8.92667 48.46 8.14H52.16C51.2133 9.26 50.26 10.34 49.3 11.38C48.3533 12.42 47.3533 13.4667 46.3 14.52C47.4067 15.44 48.4733 16.5333 49.5 17.8C50.54 19.0667 51.5333 20.4667 52.48 22H48.78ZM61.7434 22C61.1968 20.84 60.6568 19.6333 60.1234 18.38C59.5901 17.1267 59.0834 15.8867 58.6034 14.66C58.1234 13.4333 57.6768 12.26 57.2634 11.14C56.8634 10.02 56.5168 9.02 56.2234 8.14H59.6634C59.9301 8.94 60.2168 9.80667 60.5234 10.74C60.8434 11.66 61.1634 12.58 61.4834 13.5C61.8168 14.42 62.1368 15.3 62.4434 16.14C62.7501 16.98 63.0368 17.7067 63.3034 18.32C63.5568 17.7067 63.8368 16.98 64.1434 16.14C64.4634 15.3 64.7834 14.42 65.1034 13.5C65.4368 12.58 65.7568 11.66 66.0634 10.74C66.3834 9.80667 66.6768 8.94 66.9434 8.14H70.2634C69.9568 9.02 69.6034 10.02 69.2034 11.14C68.8034 12.26 68.3634 13.4333 67.8834 14.66C67.4034 15.8867 66.8968 17.1267 66.3634 18.38C65.8301 19.6333 65.2901 20.84 64.7434 22H61.7434ZM75.057 8.14H78.177V22H75.057V8.14ZM94.6652 8.14V10.8H90.4852V22H87.3652V10.8H83.1852V8.14H94.6652ZM107.85 22C107.57 21.5467 107.237 21.06 106.85 20.54C106.477 20.0067 106.064 19.48 105.61 18.96C105.17 18.4267 104.71 17.92 104.23 17.44C103.75 16.9467 103.27 16.5133 102.79 16.14V22H99.6703V8.14H102.79V13.38C103.604 12.5267 104.417 11.64 105.23 10.72C106.057 9.78667 106.824 8.92667 107.53 8.14H111.23C110.284 9.26 109.33 10.34 108.37 11.38C107.424 12.42 106.424 13.4667 105.37 14.52C106.477 15.44 107.544 16.5333 108.57 17.8C109.61 19.0667 110.604 20.4667 111.55 22H107.85ZM126.13 22C125.983 21.52 125.817 21.0267 125.63 20.52C125.457 20.0133 125.283 19.5067 125.11 19H119.71C119.537 19.5067 119.357 20.0133 119.17 20.52C118.997 21.0267 118.837 21.52 118.69 22H115.45C115.97 20.5067 116.463 19.1267 116.93 17.86C117.397 16.5933 117.85 15.4 118.29 14.28C118.743 13.16 119.183 12.1 119.61 11.1C120.05 10.0867 120.503 9.1 120.97 8.14H123.95C124.403 9.1 124.85 10.0867 125.29 11.1C125.73 12.1 126.17 13.16 126.61 14.28C127.063 15.4 127.523 16.5933 127.99 17.86C128.457 19.1267 128.95 20.5067 129.47 22H126.13ZM122.39 11.28C122.323 11.48 122.223 11.7533 122.09 12.1C121.957 12.4467 121.803 12.8467 121.63 13.3C121.457 13.7533 121.263 14.2533 121.05 14.8C120.85 15.3467 120.643 15.92 120.43 16.52H124.37C124.157 15.92 123.95 15.3467 123.75 14.8C123.55 14.2533 123.357 13.7533 123.17 13.3C122.997 12.8467 122.843 12.4467 122.71 12.1C122.577 11.7533 122.47 11.48 122.39 11.28Z" fill="white"/>
</svg>
